<?xml version="1.0" encoding="utf-8"?>
<!-- Generator: Adobe Illustrator 23.0.6, SVG Export Plug-In . SVG Version: 6.00 Build 0)  -->
<svg version="1.1" id="Layer_1" xmlns="http://www.w3.org/2000/svg" xmlns:xlink="http://www.w3.org/1999/xlink" x="0px" y="0px"
	 viewBox="0 0 375 667" style="enable-background:new 0 0 375 667;" xml:space="preserve">
<style type="text/css">
	.st0{fill:#161616;}
	.st1{fill:url(#SVGID_1_);}
	.st2{fill:#FFFFFF;}
</style>
<rect class="st0" width="375" height="667"/>
<g>
	<g>
		<g>
			
				<linearGradient id="SVGID_1_" gradientUnits="userSpaceOnUse" x1="266.9093" y1="336.5111" x2="311.1845" y2="336.9539" gradientTransform="matrix(1 0 0 -1 0 668)">
				<stop  offset="0" style="stop-color:#000000;stop-opacity:0"/>
				<stop  offset="0.8" style="stop-color:#29ABE2;stop-opacity:0.7"/>
				<stop  offset="0.8397" style="stop-color:#2CACE2;stop-opacity:0.5505"/>
				<stop  offset="0.8663" style="stop-color:#35B0E4;stop-opacity:0.4504"/>
				<stop  offset="0.8891" style="stop-color:#44B6E6;stop-opacity:0.3647"/>
				<stop  offset="0.9097" style="stop-color:#59BEE9;stop-opacity:0.2871"/>
				<stop  offset="0.9289" style="stop-color:#75C9EC;stop-opacity:0.2151"/>
				<stop  offset="0.947" style="stop-color:#97D6F1;stop-opacity:0.147"/>
				<stop  offset="0.9642" style="stop-color:#BFE6F6;stop-opacity:8.218569e-02"/>
				<stop  offset="0.9803" style="stop-color:#EDF8FD;stop-opacity:2.139705e-02"/>
				<stop  offset="0.986" style="stop-color:#FFFFFF;stop-opacity:0"/>
			</linearGradient>
			<path class="st1" d="M294.3,347.3c-0.6-0.6-1-1.1-1.5-1.7c-2.4,1.5-5.4,2.3-8.7,2.3c-6.1,0-10.3-3.7-10.3-9.3
				c0-4.3,2.5-6.9,5.5-8.9c-2.4-3.5-3-5.3-3-7.2c0-5.1,4.2-7.9,9.5-7.9c5.2,0,9.5,2.9,9.5,7.9c0,4.3-3.3,6.7-6.6,8.8
				c1.1,1.3,2.3,2.8,3.8,4.5c0.6-1.1,0.8-2.3,0.9-3.6h6.8c-0.2,3.5-1.2,6.6-3,9.1c1.6,1.9,3.4,3.8,5.2,6H294.3L294.3,347.3z
				 M288.2,340.6c-1.9-2.1-3.5-4-4.9-5.6c-1.1,1-1.9,2.1-1.9,3.5c0,1.8,1.3,2.9,3.4,2.9C286,341.3,287.2,341.1,288.2,340.6z
				 M283.6,322.9c0,0.9,0.5,2.1,1.5,3.6c1.9-1.1,3.2-2.2,3.2-3.6s-1-2.2-2.3-2.2S283.6,321.5,283.6,322.9z"/>
		</g>
	</g>
	<g>
		<g>
			<path class="st2" d="M106.5,322h0.4v5.3c-1.2,1.2-3,1.9-4.9,1.9c-4.3,0-7.5-3.1-7.5-7.3c0-4.2,3.2-7.3,7.5-7.3
				c2,0,3.7,0.6,4.9,1.9l-0.3,0.3c-1.3-1.2-2.9-1.8-4.8-1.8c-4,0-7.1,3-7.1,6.9c0,3.9,3,6.9,7.1,6.9c1.8,0,3.4-0.5,4.6-1.6
				L106.5,322L106.5,322z"/>
			<path class="st2" d="M116.1,318.4v0.4H116c-2.5,0-4.1,1.8-4.1,4.6v5.7h-0.4v-10.6h0.4v2.8C112.6,319.4,114,318.4,116.1,318.4z"/>
			<path class="st2" d="M126.5,322.1v7h-0.4v-2.2c-0.7,1.4-2.1,2.3-4.1,2.3c-2.4,0-3.7-1.2-3.7-3c0-1.5,0.9-2.9,3.8-2.9h4v-1.2
				c0-2.2-1.2-3.4-3.4-3.4c-1.6,0-3,0.6-3.9,1.5l-0.3-0.3c1-0.9,2.5-1.6,4.1-1.6C125.1,318.4,126.5,319.7,126.5,322.1z M126,326.1
				v-2.4h-4.1c-2.4,0-3.4,1-3.4,2.4c0,1.6,1.2,2.6,3.4,2.6C124,328.8,125.4,327.8,126,326.1z"/>
			<path class="st2" d="M141.4,323.8c0,3.2-2.2,5.4-5.1,5.4c-2.2,0-4-1.3-4.8-3.3v7.3H131v-14.6h0.4v3.3c0.7-2.1,2.5-3.4,4.8-3.4
				C139.2,318.4,141.4,320.6,141.4,323.8z M141,323.8c0-3-2.1-5-4.8-5c-2.7,0-4.8,2.1-4.8,5c0,3,2.1,4.9,4.8,4.9
				C139,328.8,141,326.8,141,323.8z"/>
			<path class="st2" d="M154,322.9v6.3h-0.4v-6.3c0-2.6-1.4-4-3.8-4c-2.8,0-4.5,1.9-4.5,4.6v5.8H145v-15.3h0.4v7.5
				c0.7-1.8,2.2-2.9,4.5-2.9C152.4,318.4,154,320,154,322.9z"/>
			<path class="st2" d="M158.3,315c0-0.3,0.3-0.6,0.6-0.6s0.6,0.3,0.6,0.6s-0.3,0.6-0.6,0.6C158.6,315.5,158.3,315.3,158.3,315z
				 M158.7,318.5h0.4v10.6h-0.4V318.5z"/>
			<path class="st2" d="M162.6,323.8c0-3.2,2.2-5.4,5.2-5.4c1.5,0,2.9,0.6,3.8,1.8l-0.3,0.3c-0.8-1.1-2.1-1.7-3.5-1.7
				c-2.8,0-4.9,2.1-4.9,4.9c0,3,2.1,5,4.9,5c1.4,0,2.7-0.6,3.5-1.7l0.3,0.3c-0.9,1.1-2.3,1.8-3.8,1.8
				C164.7,329.2,162.6,327,162.6,323.8z"/>
			<path class="st2" d="M180,314.7h7.1c4.9,0,8.1,2.7,8.1,7.2c0,4.5-3.4,7.2-8.1,7.2H180V314.7z M186.9,325.4c2.1,0,3.5-1.2,3.5-3.5
				s-1.4-3.5-3.5-3.5h-2.1v6.8L186.9,325.4L186.9,325.4z"/>
			<path class="st2" d="M208.9,324.5H201c0.4,0.8,1.1,1.3,2.2,1.3c1,0,1.6-0.3,2.3-0.8l2.4,2.4c-1.1,1.2-2.7,1.8-4.9,1.8
				c-4.1,0-6.8-2.5-6.8-5.9c0-3.5,2.7-5.9,6.3-5.9c3.4,0,6.2,2.1,6.2,5.9C209,323.8,208.9,324.3,208.9,324.5z M200.9,322.3h3.6
				c-0.2-0.9-0.8-1.5-1.8-1.5C201.8,320.8,201.1,321.4,200.9,322.3z"/>
			<path class="st2" d="M209.7,328.3l1.3-3.1c1,0.7,2.6,1,3.9,1c1.1,0,1.4-0.2,1.4-0.6c0-1.1-6.5,0.4-6.5-4.1c0-2.1,2-3.8,5.8-3.8
				c1.7,0,3.4,0.3,4.6,0.9l-1.3,3.1c-1.1-0.7-2.3-0.8-3.3-0.8c-1.2,0-1.5,0.3-1.5,0.6c0,1.2,6.4-0.4,6.4,4.2c0,2.1-2,3.8-5.9,3.8
				C212.9,329.3,210.8,328.9,209.7,328.3z"/>
			<path class="st2" d="M221.6,314.6c0-1.3,1.1-2.3,2.8-2.3c1.7,0,2.8,0.9,2.8,2.3s-1.1,2.4-2.8,2.4
				C222.7,317,221.6,316,221.6,314.6z M222,317.8h4.7v11.3H222V317.8z"/>
			<path class="st2" d="M241.3,317.8v9.1c0,4.4-2.5,6.4-6.9,6.4c-2.2,0-4.3-0.5-5.7-1.4l1.6-3.2c0.8,0.7,2.4,1.1,3.6,1.1
				c2,0,2.7-0.8,2.7-2.3v-0.2c-0.7,0.8-1.8,1.2-3.1,1.2c-2.9,0-5.4-2.1-5.4-5.4c0-3.4,2.5-5.4,5.4-5.4c1.6,0,2.6,0.5,3.4,1.5v-1.3
				L241.3,317.8L241.3,317.8z M236.8,323c0-1.1-0.8-1.8-2-1.8c-1.1,0-2,0.7-2,1.8c0,1,0.8,1.8,2,1.8
				C235.9,324.9,236.8,324.2,236.8,323z"/>
			<path class="st2" d="M255.9,322.7v6.4h-4.7v-5.6c0-1.4-0.6-2-1.4-2c-0.9,0-1.8,0.6-1.8,2.2v5.3h-4.7v-11.3h4.4v1.1
				c0.8-0.8,2.1-1.3,3.4-1.3C253.8,317.6,255.9,319.1,255.9,322.7z"/>
			<path class="st2" d="M270,324.5h-7.8c0.4,0.8,1.1,1.3,2.2,1.3c1,0,1.6-0.3,2.3-0.8l2.4,2.4c-1.1,1.2-2.7,1.8-4.9,1.8
				c-4.1,0-6.8-2.5-6.8-5.9c0-3.5,2.7-5.9,6.3-5.9c3.4,0,6.2,2.1,6.2,5.9C270.1,323.8,270,324.3,270,324.5z M262.1,322.3h3.6
				c-0.2-0.9-0.8-1.5-1.8-1.5C263,320.8,262.2,321.4,262.1,322.3z"/>
			<path class="st2" d="M279.6,317.6v4.1c-0.4-0.1-0.7-0.1-1-0.1c-1.4,0-2.4,0.7-2.4,2.4v5h-4.7v-11.3h4.4v1.2
				C276.8,318.1,278,317.6,279.6,317.6z"/>
		</g>
	</g>
	<g>
		<g>
			<path class="st2" d="M69.8,333.9v6.8h7.8v0.4h-7.8v6.6h-0.4v-14.3h9.1v0.4L69.8,333.9L69.8,333.9z"/>
			<path class="st2" d="M90.4,337.2v10.5H90V345c-0.7,1.8-2.1,2.9-4.2,2.9c-2.7,0-4.3-1.5-4.3-4.4v-6.3h0.4v6.3c0,2.6,1.4,4,3.9,4
				c2.6,0,4.3-1.8,4.3-4.5v-5.7L90.4,337.2L90.4,337.2z"/>
			<path class="st2" d="M95,332.7h0.4v15.1H95V332.7z"/>
			<path class="st2" d="M100.1,332.7h0.4v15.1h-0.4V332.7z"/>
			<path class="st2" d="M109.1,345.8l0.3-0.3c0.9,1,2.7,1.9,4.7,1.9c3.1,0,4.5-1.4,4.5-3.2c0-4.8-9.1-2-9.1-7.2
				c0-1.9,1.4-3.5,4.8-3.5c1.5,0,3.1,0.5,4.1,1.3l-0.2,0.3c-1.1-0.8-2.6-1.2-3.9-1.2c-3,0-4.4,1.4-4.4,3.2c0,4.8,9.1,2.1,9.1,7.2
				c0,1.9-1.5,3.5-4.9,3.5C112,347.9,110.1,347,109.1,345.8z"/>
			<path class="st2" d="M127.2,347.1c-0.5,0.5-1.3,0.7-2.1,0.7c-1.7,0-2.5-1-2.5-2.6v-7.7h-2.1v-0.4h2.1v-2.3h0.4v2.3h3.5v0.4H123
				v7.5c0,1.5,0.7,2.3,2.1,2.3c0.7,0,1.3-0.2,1.8-0.7L127.2,347.1z"/>
			<path class="st2" d="M137.5,340.9v6.9h-0.4v-2.2c-0.7,1.4-2.1,2.3-4,2.3c-2.3,0-3.7-1.2-3.7-3c0-1.5,0.9-2.8,3.7-2.8h4V341
				c0-2.2-1.1-3.4-3.4-3.4c-1.6,0-2.9,0.6-3.8,1.5l-0.3-0.3c1-0.9,2.5-1.6,4.1-1.6C136.2,337.2,137.5,338.4,137.5,340.9z
				 M137.1,344.8v-2.3h-4c-2.4,0-3.4,1-3.4,2.4c0,1.6,1.2,2.6,3.4,2.6C135.2,347.4,136.5,346.5,137.1,344.8z"/>
			<path class="st2" d="M140.8,342.5c0-3.2,2.1-5.3,5.1-5.3c1.5,0,2.9,0.6,3.8,1.7l-0.3,0.3c-0.8-1.1-2.1-1.6-3.5-1.6
				c-2.7,0-4.8,2.1-4.8,4.9c0,2.9,2.1,4.9,4.8,4.9c1.4,0,2.7-0.6,3.5-1.6l0.3,0.3c-0.9,1.1-2.2,1.7-3.8,1.7
				C143,347.9,140.8,345.6,140.8,342.5z"/>
			<path class="st2" d="M156.5,341.7l-3.1,2.8v3.3h-0.4v-15.1h0.4V344l7.5-6.8h0.6l-4.6,4.2l5,6.3h-0.6L156.5,341.7z"/>
			<path class="st2" d="M167.8,333.5h7c4.8,0,8,2.7,8,7.1c0,4.4-3.3,7.1-8,7.1h-7V333.5z M174.6,344c2.1,0,3.4-1.2,3.4-3.4
				s-1.4-3.4-3.4-3.4h-2.1v6.7H174.6z"/>
			<path class="st2" d="M196.3,343.3h-7.7c0.3,0.8,1.1,1.3,2.2,1.3c1,0,1.6-0.3,2.3-0.8l2.4,2.4c-1.1,1.2-2.6,1.8-4.9,1.8
				c-4.1,0-6.7-2.4-6.7-5.8s2.7-5.8,6.3-5.8c3.3,0,6.2,2,6.2,5.8C196.4,342.6,196.3,342.9,196.3,343.3z M188.4,341.1h3.5
				c-0.2-0.9-0.8-1.5-1.8-1.5C189.3,339.6,188.6,340.1,188.4,341.1z"/>
			<path class="st2" d="M210,336.7l-4.5,11.1h-4.8l-4.5-11.1h4.8l2.2,6l2.4-6H210z"/>
			<path class="st2" d="M222.1,343.3h-7.7c0.3,0.8,1.1,1.3,2.2,1.3c1,0,1.6-0.3,2.3-0.8l2.4,2.4c-1.1,1.2-2.6,1.8-4.9,1.8
				c-4.1,0-6.7-2.4-6.7-5.8s2.7-5.8,6.3-5.8c3.3,0,6.2,2,6.2,5.8C222.2,342.6,222.2,342.9,222.1,343.3z M214.4,341.1h3.5
				c-0.2-0.9-0.8-1.5-1.8-1.5S214.6,340.1,214.4,341.1z"/>
			<path class="st2" d="M223.7,332.7h4.6v15.1h-4.6V332.7z"/>
			<path class="st2" d="M229.7,342.2c0-3.4,2.7-5.8,6.4-5.8c3.8,0,6.4,2.4,6.4,5.8s-2.7,5.8-6.4,5.8S229.7,345.5,229.7,342.2z
				 M238,342.2c0-1.4-0.8-2.1-1.8-2.1c-1,0-1.8,0.7-1.8,2.1c0,1.4,0.8,2.2,1.8,2.2C237.2,344.4,238,343.7,238,342.2z"/>
			<path class="st2" d="M256.9,342.2c0,3.5-2.4,5.8-5.4,5.8c-1.2,0-2.1-0.3-2.8-0.9v4.7h-4.6v-15.1h4.4v0.9c0.7-0.7,1.7-1.1,3.1-1.1
				C254.4,336.4,256.9,338.6,256.9,342.2z M252.3,342.2c0-1.4-0.8-2.2-1.8-2.2c-1,0-1.8,0.7-1.8,2.2c0,1.4,0.8,2.1,1.8,2.1
				C251.4,344.4,252.3,343.7,252.3,342.2z"/>
			<path class="st2" d="M270.2,343.3h-7.7c0.3,0.8,1.1,1.3,2.2,1.3c1,0,1.6-0.3,2.3-0.8l2.4,2.4c-1.1,1.2-2.6,1.8-4.9,1.8
				c-4.1,0-6.7-2.4-6.7-5.8s2.7-5.8,6.3-5.8c3.3,0,6.2,2,6.2,5.8C270.2,342.6,270.2,342.9,270.2,343.3z M262.3,341.1h3.5
				c-0.2-0.9-0.8-1.5-1.8-1.5C263.2,339.6,262.5,340.1,262.3,341.1z"/>
			<path class="st2" d="M279.6,336.4v4.1c-0.4-0.1-0.7-0.1-1-0.1c-1.4,0-2.3,0.7-2.3,2.4v4.9h-4.6v-11.1h4.4v1.2
				C276.8,337,278.1,336.4,279.6,336.4z"/>
		</g>
	</g>
</g>
</svg>
