<?xml version="1.0" encoding="utf-8"?>
<!-- Generator: Adobe Illustrator 23.0.6, SVG Export Plug-In . SVG Version: 6.00 Build 0)  -->
<svg version="1.1" id="Layer_1" xmlns="http://www.w3.org/2000/svg" xmlns:xlink="http://www.w3.org/1999/xlink" x="0px" y="0px"
	 viewBox="0 0 750 1334" style="enable-background:new 0 0 750 1334;" xml:space="preserve">
<style type="text/css">
	.st0{fill:#161616;}
	.st1{fill:url(#SVGID_1_);}
	.st2{fill:#FFFFFF;}
</style>
<rect class="st0" width="750" height="1334"/>
<g>
	<g>
		
			<image style="overflow:visible;opacity:0.75;" width="169" height="190" xlink:href="C694717E.png"  transform="matrix(0.4316 0 0 0.4316 549.5663 624.7071)">
		</image>
		<g>
			<linearGradient id="SVGID_1_" gradientUnits="userSpaceOnUse" x1="538.9112" y1="662.9487" x2="630.3005" y2="662.0347">
				<stop  offset="0" style="stop-color:#000000;stop-opacity:0"/>
				<stop  offset="0.8" style="stop-color:#29ABE2;stop-opacity:0.7"/>
				<stop  offset="0.8397" style="stop-color:#2CACE2;stop-opacity:0.5505"/>
				<stop  offset="0.8663" style="stop-color:#35B0E4;stop-opacity:0.4504"/>
				<stop  offset="0.8891" style="stop-color:#44B6E6;stop-opacity:0.3647"/>
				<stop  offset="0.9097" style="stop-color:#59BEE9;stop-opacity:0.2871"/>
				<stop  offset="0.9289" style="stop-color:#75C9EC;stop-opacity:0.2151"/>
				<stop  offset="0.947" style="stop-color:#97D6F1;stop-opacity:0.147"/>
				<stop  offset="0.9642" style="stop-color:#BFE6F6;stop-opacity:8.218569e-02"/>
				<stop  offset="0.9803" style="stop-color:#EDF8FD;stop-opacity:2.139705e-02"/>
				<stop  offset="0.986" style="stop-color:#FFFFFF;stop-opacity:0"/>
			</linearGradient>
			<path class="st1" d="M595.5,695.5c-1.1-1.2-2.1-2.3-3.2-3.4c-5.1,3.1-11.2,4.9-17.8,4.9c-12.5,0-21.2-7.8-21.2-19.2
				c0-8.8,5.2-14.2,11.3-18.3c-5.1-7.2-6.1-11.1-6.1-14.8c0-10.6,8.7-16.4,19.7-16.4c10.8,0,19.6,5.9,19.6,16.4
				c0,8.9-6.7,13.9-13.7,18.2c2.3,2.7,4.9,5.8,7.8,9.2c1.1-2.3,1.8-4.9,2-7.6h14.1c-0.3,7.2-2.6,13.7-6.2,18.9
				c3.3,3.8,6.9,7.8,10.8,12.3H595.5z M582.9,681.6c-3.9-4.4-7.2-8.2-10-11.6c-2.4,2.1-3.9,4.4-3.9,7.2c0,3.6,2.7,6,6.9,6
				C578.4,683.2,580.7,682.6,582.9,681.6z M573.4,645c0,1.9,1,4.3,3.1,7.6c3.8-2.3,6.6-4.5,6.6-7.6c0-2.9-2.1-4.7-4.8-4.7
				C575.4,640.3,573.4,642.1,573.4,645z"/>
		</g>
	</g>
	<g>
		
			<image style="overflow:visible;opacity:0.75;" width="917" height="132" xlink:href="C6947178.png"  transform="matrix(0.4316 0 0 0.4316 179.2873 619.5283)">
		</image>
		<g>
			<path class="st2" d="M207.7,643.4h0.8v10.9c-2.6,2.6-6.2,3.8-10.3,3.8c-8.8,0-15.4-6.4-15.4-15c0-8.6,6.6-15,15.4-15
				c4,0,7.7,1.2,10.3,3.8l-0.5,0.6c-2.7-2.6-6-3.6-9.7-3.6c-8.3,0-14.6,6.2-14.6,14.2s6.2,14.2,14.6,14.2c3.6,0,6.9-0.9,9.4-3.4
				V643.4z"/>
			<path class="st2" d="M227.7,635.9v0.9h-0.3c-5.3,0-8.4,3.6-8.4,9.4V658h-0.9v-22h0.9v5.7C220.3,638,223.3,635.9,227.7,635.9z"/>
			<path class="st2" d="M249,643.6V658h-0.9v-4.7c-1.4,2.9-4.3,4.8-8.4,4.8c-4.9,0-7.8-2.5-7.8-6.2c0-3.1,2-5.9,7.8-5.9h8.3v-2.4
				c0-4.6-2.4-6.9-7-6.9c-3.3,0-6.1,1.2-8,3.1l-0.6-0.6c2.1-2,5.2-3.3,8.6-3.3C246.2,635.9,249,638.6,249,643.6z M248.1,651.7v-4.9
				h-8.4c-5,0-6.9,2.1-6.9,5.1c0,3.3,2.6,5.4,6.9,5.4C244,657.3,246.7,655.3,248.1,651.7z"/>
			<path class="st2" d="M279.9,647c0,6.5-4.6,11.1-10.7,11.1c-4.6,0-8.3-2.7-9.8-6.8v14.9h-0.9V636h0.9v6.7c1.5-4.2,5.2-6.8,9.8-6.8
				C275.2,635.9,279.9,640.5,279.9,647z M279,647c0-6.1-4.2-10.3-9.8-10.3c-5.6,0-9.8,4.3-9.8,10.3c0,6.1,4.2,10.3,9.8,10.3
				C274.8,657.3,279,653.1,279,647z"/>
			<path class="st2" d="M305.9,645v13h-0.9v-13c0-5.4-2.9-8.3-7.9-8.3c-5.8,0-9.3,3.8-9.3,9.4v12h-0.9v-31.6h0.9v15.4
				c1.3-3.7,4.6-6,9.2-6C302.5,635.9,305.9,639.1,305.9,645z"/>
			<path class="st2" d="M314.8,628.8c0-0.6,0.5-1.1,1.1-1.1c0.6,0,1.1,0.5,1.1,1.1c0,0.6-0.5,1.1-1.1,1.1
				C315.3,629.9,314.8,629.4,314.8,628.8z M315.5,636h0.9v22h-0.9V636z"/>
			<path class="st2" d="M323.5,647c0-6.6,4.6-11.1,10.8-11.1c3.1,0,6,1.2,7.9,3.6l-0.6,0.6c-1.7-2.3-4.4-3.4-7.3-3.4
				c-5.7,0-10,4.2-10,10.3c0,6.1,4.2,10.3,10,10.3c2.9,0,5.6-1.1,7.3-3.4l0.6,0.6c-1.9,2.4-4.8,3.6-7.9,3.6
				C328.1,658.1,323.5,653.5,323.5,647z"/>
			<path class="st2" d="M359.6,628.2h14.7c10,0,16.8,5.7,16.8,14.9c0,9.2-6.9,14.9-16.8,14.9h-14.7V628.2z M373.9,650.2
				c4.2,0,7.1-2.5,7.1-7.1c0-4.6-2.9-7.1-7.1-7.1h-4.2v14.1H373.9z"/>
			<path class="st2" d="M419.1,648.6h-16.2c0.7,1.8,2.3,2.7,4.7,2.7c2.1,0,3.3-0.6,4.9-1.7l5,5.1c-2.3,2.5-5.5,3.7-10.2,3.7
				c-8.6,0-14.1-5.1-14.1-12.1c0-7.1,5.7-12,13.2-12c6.9,0,12.8,4.2,12.8,12C419.2,647,419.1,647.9,419.1,648.6z M402.7,644h7.5
				c-0.4-2-1.8-3.1-3.7-3.1C404.5,640.9,403.1,642,402.7,644z"/>
			<path class="st2" d="M420.8,656.1l2.6-6.3c2.2,1.3,5.4,2.1,8.1,2.1c2.3,0,3-0.4,3-1.1c0-2.4-13.4,0.8-13.4-8.5
				c0-4.4,4.1-8,11.9-8c3.4,0,7,0.6,9.5,1.9l-2.6,6.3c-2.4-1.3-4.8-1.7-6.7-1.7c-2.5,0-3.1,0.6-3.1,1.1c0,2.4,13.4-0.7,13.4,8.6
				c0,4.2-4,7.9-12,7.9C427.3,658.4,423.2,657.5,420.8,656.1z"/>
			<path class="st2" d="M445.3,628c0-2.8,2.3-4.9,5.8-4.9c3.5,0,5.8,2,5.8,4.7c0,2.9-2.3,5.1-5.8,5.1
				C447.5,632.9,445.3,630.7,445.3,628z M446.3,634.7h9.6V658h-9.6V634.7z"/>
			<path class="st2" d="M486.1,634.7v18.6c0,9-5.3,13.3-14.2,13.3c-4.6,0-8.8-1-11.7-2.9l3.2-6.6c1.8,1.4,4.9,2.3,7.4,2.3
				c4,0,5.5-1.7,5.5-4.9v-0.4c-1.4,1.7-3.6,2.5-6.4,2.5c-5.9,0-11.2-4.3-11.2-11.2c0-6.9,5.3-11.2,11.2-11.2c3.2,0,5.4,1,6.9,3.1
				v-2.6H486.1z M476.6,645.5c0-2.3-1.7-3.7-4-3.7c-2.3,0-4,1.4-4,3.7c0,2.3,1.7,3.7,4,3.7C474.9,649.2,476.6,647.7,476.6,645.5z"/>
			<path class="st2" d="M516.1,644.7V658h-9.6v-11.6c0-2.9-1.1-4-2.9-4c-2,0-3.6,1.2-3.6,4.7V658h-9.6v-23.3h9.1v2.3
				c1.8-1.8,4.3-2.7,7-2.7C511.9,634.3,516.1,637.4,516.1,644.7z"/>
			<path class="st2" d="M545.3,648.6h-16.2c0.7,1.8,2.3,2.7,4.7,2.7c2.1,0,3.3-0.6,4.9-1.7l5,5.1c-2.3,2.5-5.5,3.7-10.2,3.7
				c-8.6,0-14.1-5.1-14.1-12.1c0-7.1,5.7-12,13.2-12c6.9,0,12.8,4.2,12.8,12C545.4,647,545.4,647.9,545.3,648.6z M529,644h7.5
				c-0.4-2-1.8-3.1-3.7-3.1C530.7,640.9,529.4,642,529,644z"/>
			<path class="st2" d="M565.1,634.3v8.5c-0.9-0.1-1.4-0.2-2.1-0.2c-2.9,0-4.9,1.3-4.9,5V658h-9.6v-23.3h9.1v2.5
				C559.3,635.3,561.9,634.3,565.1,634.3z"/>
		</g>
	</g>
	<g>
		
			<image style="overflow:visible;opacity:0.75;" width="1037" height="122" xlink:href="C6947177.png"  transform="matrix(0.4316 0 0 0.4316 127.5 661.8213)">
		</image>
		<g>
			<path class="st2" d="M132.2,667.9V682h16.2v0.8h-16.2v13.7h-0.8v-29.4h18.9v0.8H132.2z"/>
			<path class="st2" d="M174.4,674.7v21.7h-0.8v-5.8c-1.3,3.6-4.3,5.9-8.7,5.9c-5.5,0-8.9-3.2-8.9-9v-12.8h0.8v12.8
				c0,5.4,2.9,8.2,8,8.2c5.5,0,8.8-3.7,8.8-9.2v-11.8H174.4z"/>
			<path class="st2" d="M184.1,665.3h0.8v31.2h-0.8V665.3z"/>
			<path class="st2" d="M194.6,665.3h0.8v31.2h-0.8V665.3z"/>
			<path class="st2" d="M213.2,692.4l0.6-0.5c1.8,2.2,5.6,3.9,9.7,3.9c6.4,0,9.2-2.9,9.2-6.6c0-9.9-18.7-4.1-18.7-14.9
				c0-3.9,2.9-7.4,9.8-7.4c3.2,0,6.4,1.1,8.5,2.7l-0.5,0.7c-2.4-1.7-5.4-2.6-8-2.6c-6.2,0-9,3-9,6.6c0,9.9,18.7,4.2,18.7,14.9
				c0,3.9-3.1,7.4-10,7.4C219.2,696.6,215.2,694.9,213.2,692.4z"/>
			<path class="st2" d="M250.7,695c-1,1.1-2.7,1.6-4.2,1.6c-3.4,0-5.3-2.1-5.3-5.3v-15.7H237v-0.8h4.2V670h0.8v4.7h7.4v0.8H242V691
				c0,3.1,1.5,4.7,4.5,4.7c1.4,0,2.7-0.5,3.6-1.3L250.7,695z"/>
			<path class="st2" d="M271.8,682.2v14.2H271v-4.6c-1.4,2.9-4.2,4.7-8.3,4.7c-4.9,0-7.7-2.4-7.7-6.1c0-3.1,1.9-5.8,7.7-5.8h8.2
				v-2.4c0-4.5-2.4-6.8-6.9-6.8c-3.2,0-6,1.2-7.9,3l-0.6-0.6c2.1-2,5.2-3.2,8.4-3.2C269.1,674.6,271.8,677.3,271.8,682.2z
				 M271,690.2v-4.8h-8.3c-4.9,0-6.8,2.1-6.8,5c0,3.3,2.5,5.3,6.8,5.3C266.9,695.8,269.6,693.8,271,690.2z"/>
			<path class="st2" d="M278.7,685.6c0-6.5,4.5-11,10.7-11c3.1,0,6,1.2,7.8,3.5l-0.6,0.6c-1.7-2.3-4.3-3.4-7.2-3.4
				c-5.7,0-9.8,4.2-9.8,10.2c0,6,4.2,10.2,9.8,10.2c2.9,0,5.5-1.1,7.2-3.4l0.6,0.6c-1.8,2.4-4.7,3.5-7.8,3.5
				C283.2,696.6,278.7,692.1,278.7,685.6z"/>
			<path class="st2" d="M311,683.9l-6.4,5.8v6.7h-0.8v-31.2h0.8v23.4l15.3-14h1.2l-9.5,8.7l10.4,13.1H321L311,683.9z"/>
			<path class="st2" d="M334.4,667.1h14.5c9.8,0,16.6,5.6,16.6,14.7c0,9.1-6.8,14.7-16.6,14.7h-14.5V667.1z M348.4,688.7
				c4.2,0,7-2.5,7-7c0-4.5-2.9-7-7-7h-4.2v13.9H348.4z"/>
			<path class="st2" d="M393.1,687.2h-16c0.7,1.8,2.3,2.7,4.6,2.7c2.1,0,3.3-0.5,4.8-1.7l5,5c-2.2,2.4-5.5,3.7-10,3.7
				c-8.4,0-13.9-5.1-13.9-11.9c0-7,5.6-11.9,13-11.9c6.8,0,12.6,4.1,12.6,11.9C393.2,685.6,393.1,686.5,393.1,687.2z M377,682.6h7.4
				c-0.4-1.9-1.8-3.1-3.7-3.1C378.7,679.5,377.3,680.7,377,682.6z"/>
			<path class="st2" d="M421.4,673.5l-9.2,23h-9.8l-9.2-23h9.7l4.6,12.3l5-12.3H421.4z"/>
			<path class="st2" d="M446.5,687.2h-16c0.7,1.8,2.3,2.7,4.6,2.7c2.1,0,3.3-0.5,4.8-1.7l5,5c-2.2,2.4-5.5,3.7-10,3.7
				c-8.4,0-13.9-5.1-13.9-11.9c0-7,5.6-11.9,13-11.9c6.8,0,12.6,4.1,12.6,11.9C446.7,685.6,446.6,686.5,446.5,687.2z M430.4,682.6
				h7.4c-0.4-1.9-1.8-3.1-3.7-3.1C432.1,679.5,430.8,680.7,430.4,682.6z"/>
			<path class="st2" d="M449.7,665.3h9.5v31.2h-9.5V665.3z"/>
			<path class="st2" d="M462.1,685c0-7,5.6-11.9,13.4-11.9c7.8,0,13.4,4.9,13.4,11.9c0,7-5.5,11.9-13.4,11.9
				C467.7,696.9,462.1,691.9,462.1,685z M479.2,685c0-3-1.6-4.5-3.7-4.5s-3.7,1.5-3.7,4.5c0,3,1.6,4.5,3.7,4.5
				S479.2,687.9,479.2,685z"/>
			<path class="st2" d="M518.3,685c0,7.4-5.1,11.9-11.1,11.9c-2.5,0-4.5-0.6-5.8-2v9.7h-9.5v-31.1h9v1.9c1.4-1.6,3.4-2.3,6.3-2.3
				C513.2,673.1,518.3,677.6,518.3,685z M508.6,685c0-3-1.6-4.5-3.7-4.5c-2.1,0-3.7,1.6-3.7,4.5c0,3,1.6,4.5,3.7,4.5
				C507,689.5,508.6,688,508.6,685z"/>
			<path class="st2" d="M545.6,687.2h-16c0.7,1.8,2.3,2.7,4.6,2.7c2.1,0,3.3-0.5,4.8-1.7l5,5c-2.2,2.4-5.5,3.7-10,3.7
				c-8.4,0-13.9-5.1-13.9-11.9c0-7,5.6-11.9,13-11.9c6.8,0,12.6,4.1,12.6,11.9C545.7,685.6,545.6,686.5,545.6,687.2z M529.4,682.6
				h7.4c-0.4-1.9-1.8-3.1-3.7-3.1C531.2,679.5,529.8,680.7,529.4,682.6z"/>
			<path class="st2" d="M565.2,673.1v8.4c-0.8-0.1-1.4-0.2-2.1-0.2c-2.9,0-4.9,1.3-4.9,5v10.2h-9.5v-23h9v2.5
				C559.4,674,562,673.1,565.2,673.1z"/>
		</g>
	</g>
</g>
</svg>
