<?xml version="1.0" encoding="utf-8"?>
<!-- Generator: Adobe Illustrator 23.0.6, SVG Export Plug-In . SVG Version: 6.00 Build 0)  -->
<svg version="1.1" id="Layer_1" xmlns="http://www.w3.org/2000/svg" xmlns:xlink="http://www.w3.org/1999/xlink" x="0px" y="0px"
	 viewBox="0 0 375 667" style="enable-background:new 0 0 375 667;" xml:space="preserve">
<style type="text/css">
	.st0{fill:#161616;}
	.st1{fill:url(#SVGID_1_);}
	.st2{fill:#FFFFFF;}
</style>
<rect class="st0" width="375" height="667"/>
<g>
	<g>
		
			<image style="overflow:visible;opacity:0.75;" width="169" height="190" xlink:href="5508AFEB.png"  transform="matrix(0.2241 0 0 0.2241 278.1334 311.5418)">
		</image>
		<g>
			<linearGradient id="SVGID_1_" gradientUnits="userSpaceOnUse" x1="272.6013" y1="331.3966" x2="320.05" y2="330.9221">
				<stop  offset="0" style="stop-color:#000000;stop-opacity:0"/>
				<stop  offset="0.8" style="stop-color:#29ABE2;stop-opacity:0.7"/>
				<stop  offset="0.8397" style="stop-color:#2CACE2;stop-opacity:0.5505"/>
				<stop  offset="0.8663" style="stop-color:#35B0E4;stop-opacity:0.4504"/>
				<stop  offset="0.8891" style="stop-color:#44B6E6;stop-opacity:0.3647"/>
				<stop  offset="0.9097" style="stop-color:#59BEE9;stop-opacity:0.2871"/>
				<stop  offset="0.9289" style="stop-color:#75C9EC;stop-opacity:0.2151"/>
				<stop  offset="0.947" style="stop-color:#97D6F1;stop-opacity:0.147"/>
				<stop  offset="0.9642" style="stop-color:#BFE6F6;stop-opacity:8.218569e-02"/>
				<stop  offset="0.9803" style="stop-color:#EDF8FD;stop-opacity:2.139705e-02"/>
				<stop  offset="0.986" style="stop-color:#FFFFFF;stop-opacity:0"/>
			</linearGradient>
			<path class="st1" d="M302,348.3c-0.6-0.6-1.1-1.2-1.6-1.8c-2.6,1.6-5.8,2.5-9.3,2.5c-6.5,0-11-4-11-10c0-4.6,2.7-7.4,5.9-9.5
				c-2.6-3.8-3.2-5.7-3.2-7.7c0-5.5,4.5-8.5,10.2-8.5c5.6,0,10.2,3.1,10.2,8.5c0,4.6-3.5,7.2-7.1,9.4c1.2,1.4,2.5,3,4.1,4.8
				c0.6-1.2,0.9-2.5,1-3.9h7.3c-0.2,3.7-1.3,7.1-3.2,9.8c1.7,2,3.6,4.1,5.6,6.4H302z M295.4,341.1c-2-2.3-3.7-4.3-5.2-6
				c-1.2,1.1-2,2.3-2,3.7c0,1.9,1.4,3.1,3.6,3.1C293.1,341.9,294.3,341.6,295.4,341.1z M290.5,322.1c0,1,0.5,2.2,1.6,3.9
				c2-1.2,3.4-2.4,3.4-3.9c0-1.5-1.1-2.4-2.5-2.4C291.6,319.7,290.5,320.6,290.5,322.1z"/>
		</g>
	</g>
	<g>
		
			<image style="overflow:visible;opacity:0.75;" width="917" height="132" xlink:href="5508AFE9.png"  transform="matrix(0.2241 0 0 0.2241 85.8875 308.8531)">
		</image>
		<g>
			<path class="st2" d="M100.7,321.2h0.4v5.7c-1.3,1.3-3.2,2-5.3,2c-4.6,0-8-3.3-8-7.8c0-4.5,3.4-7.8,8-7.8c2.1,0,4,0.6,5.3,2
				l-0.3,0.3c-1.4-1.3-3.1-1.9-5.1-1.9c-4.3,0-7.6,3.2-7.6,7.4c0,4.2,3.2,7.4,7.6,7.4c1.9,0,3.6-0.5,4.9-1.7V321.2z"/>
			<path class="st2" d="M111,317.3v0.4h-0.1c-2.7,0-4.4,1.9-4.4,4.9v6.1h-0.4v-11.4h0.4v3C107.2,318.4,108.7,317.3,111,317.3z"/>
			<path class="st2" d="M122.1,321.3v7.5h-0.4v-2.4c-0.7,1.5-2.2,2.5-4.4,2.5c-2.6,0-4-1.3-4-3.2c0-1.6,1-3.1,4.1-3.1h4.3v-1.3
				c0-2.4-1.3-3.6-3.6-3.6c-1.7,0-3.2,0.6-4.2,1.6l-0.3-0.3c1.1-1,2.7-1.7,4.4-1.7C120.6,317.3,122.1,318.7,122.1,321.3z
				 M121.6,325.6V323h-4.4c-2.6,0-3.6,1.1-3.6,2.6c0,1.7,1.3,2.8,3.6,2.8C119.5,328.5,120.9,327.4,121.6,325.6z"/>
			<path class="st2" d="M138.1,323.1c0,3.4-2.4,5.8-5.5,5.8c-2.4,0-4.3-1.4-5.1-3.5v7.8H127v-15.7h0.4v3.5c0.8-2.2,2.7-3.6,5.1-3.6
				C135.7,317.3,138.1,319.7,138.1,323.1z M137.7,323.1c0-3.2-2.2-5.4-5.1-5.4c-2.9,0-5.1,2.2-5.1,5.4c0,3.2,2.2,5.3,5.1,5.3
				C135.5,328.5,137.7,326.3,137.7,323.1z"/>
			<path class="st2" d="M151.6,322.1v6.7h-0.4v-6.7c0-2.8-1.5-4.3-4.1-4.3c-3,0-4.8,2-4.8,4.9v6.2h-0.4v-16.4h0.4v8
				c0.7-1.9,2.4-3.1,4.8-3.1C149.9,317.3,151.6,319,151.6,322.1z"/>
			<path class="st2" d="M156.2,313.7c0-0.3,0.3-0.6,0.6-0.6c0.3,0,0.6,0.3,0.6,0.6c0,0.3-0.3,0.6-0.6,0.6
				C156.5,314.2,156.2,314,156.2,313.7z M156.6,317.4h0.4v11.4h-0.4V317.4z"/>
			<path class="st2" d="M160.8,323.1c0-3.4,2.4-5.8,5.6-5.8c1.6,0,3.1,0.6,4.1,1.9l-0.3,0.3c-0.9-1.2-2.3-1.8-3.8-1.8
				c-3,0-5.2,2.2-5.2,5.3c0,3.2,2.2,5.4,5.2,5.4c1.5,0,2.9-0.6,3.8-1.8l0.3,0.3c-1,1.2-2.5,1.9-4.1,1.9
				C163.1,328.9,160.8,326.5,160.8,323.1z"/>
			<path class="st2" d="M179.5,313.4h7.6c5.2,0,8.7,2.9,8.7,7.7c0,4.8-3.6,7.7-8.7,7.7h-7.6V313.4z M186.9,324.8
				c2.2,0,3.7-1.3,3.7-3.7c0-2.4-1.5-3.7-3.7-3.7h-2.2v7.3H186.9z"/>
			<path class="st2" d="M210.4,323.9H202c0.4,0.9,1.2,1.4,2.4,1.4c1.1,0,1.7-0.3,2.5-0.9l2.6,2.6c-1.2,1.3-2.9,1.9-5.3,1.9
				c-4.4,0-7.3-2.7-7.3-6.3c0-3.7,2.9-6.3,6.8-6.3c3.6,0,6.6,2.2,6.6,6.3C210.5,323.1,210.4,323.6,210.4,323.9z M201.9,321.5h3.9
				c-0.2-1-0.9-1.6-1.9-1.6C202.8,319.9,202.1,320.5,201.9,321.5z"/>
			<path class="st2" d="M211.3,327.9l1.4-3.3c1.1,0.7,2.8,1.1,4.2,1.1c1.2,0,1.5-0.2,1.5-0.6c0-1.2-7,0.4-7-4.4
				c0-2.3,2.1-4.1,6.2-4.1c1.8,0,3.6,0.3,4.9,1l-1.4,3.3c-1.2-0.7-2.5-0.9-3.5-0.9c-1.3,0-1.6,0.3-1.6,0.6c0,1.3,6.9-0.4,6.9,4.5
				c0,2.2-2.1,4.1-6.3,4.1C214.7,329,212.5,328.6,211.3,327.9z"/>
			<path class="st2" d="M224,313.2c0-1.4,1.2-2.5,3-2.5s3,1,3,2.5c0,1.5-1.2,2.6-3,2.6S224,314.7,224,313.2z M224.5,316.7h5v12.1h-5
				V316.7z"/>
			<path class="st2" d="M245.2,316.7v9.7c0,4.7-2.7,6.9-7.4,6.9c-2.4,0-4.6-0.5-6.1-1.5l1.7-3.4c0.9,0.7,2.6,1.2,3.9,1.2
				c2.1,0,2.9-0.9,2.9-2.5v-0.2c-0.8,0.9-1.9,1.3-3.3,1.3c-3.1,0-5.8-2.3-5.8-5.8c0-3.6,2.7-5.8,5.8-5.8c1.7,0,2.8,0.5,3.6,1.6v-1.4
				H245.2z M240.3,322.3c0-1.2-0.9-1.9-2.1-1.9c-1.2,0-2.1,0.8-2.1,1.9s0.9,1.9,2.1,1.9C239.4,324.3,240.3,323.5,240.3,322.3z"/>
			<path class="st2" d="M260.8,321.9v6.9h-5v-6c0-1.5-0.6-2.1-1.5-2.1c-1,0-1.9,0.6-1.9,2.4v5.7h-5v-12.1h4.7v1.2
				c0.9-0.9,2.2-1.4,3.6-1.4C258.6,316.5,260.8,318.1,260.8,321.9z"/>
			<path class="st2" d="M275.9,323.9h-8.4c0.4,0.9,1.2,1.4,2.4,1.4c1.1,0,1.7-0.3,2.5-0.9l2.6,2.6c-1.2,1.3-2.9,1.9-5.3,1.9
				c-4.4,0-7.3-2.7-7.3-6.3c0-3.7,2.9-6.3,6.8-6.3c3.6,0,6.6,2.2,6.6,6.3C276,323.1,275.9,323.6,275.9,323.9z M267.4,321.5h3.9
				c-0.2-1-0.9-1.6-1.9-1.6C268.4,319.9,267.6,320.5,267.4,321.5z"/>
			<path class="st2" d="M286.2,316.5v4.4c-0.4-0.1-0.8-0.1-1.1-0.1c-1.5,0-2.6,0.7-2.6,2.6v5.4h-5v-12.1h4.7v1.3
				C283.2,317,284.5,316.5,286.2,316.5z"/>
		</g>
	</g>
	<g>
		
			<image style="overflow:visible;opacity:0.75;" width="1037" height="122" xlink:href="5508AFEF.png"  transform="matrix(0.2241 0 0 0.2241 59 330.8112)">
		</image>
		<g>
			<path class="st2" d="M61.4,333.9v7.3h8.4v0.4h-8.4v7.1H61v-15.3h9.8v0.4H61.4z"/>
			<path class="st2" d="M83.4,337.5v11.3h-0.4v-3c-0.7,1.9-2.2,3.1-4.5,3.1c-2.9,0-4.6-1.6-4.6-4.7v-6.7h0.4v6.7
				c0,2.8,1.5,4.3,4.2,4.3c2.8,0,4.6-1.9,4.6-4.8v-6.1H83.4z"/>
			<path class="st2" d="M88.4,332.6h0.4v16.2h-0.4V332.6z"/>
			<path class="st2" d="M93.8,332.6h0.4v16.2h-0.4V332.6z"/>
			<path class="st2" d="M103.5,346.7l0.3-0.3c1,1.1,2.9,2,5,2c3.3,0,4.8-1.5,4.8-3.4c0-5.1-9.7-2.1-9.7-7.7c0-2,1.5-3.8,5.1-3.8
				c1.6,0,3.3,0.5,4.4,1.4l-0.2,0.3c-1.2-0.9-2.8-1.3-4.2-1.3c-3.2,0-4.7,1.5-4.7,3.4c0,5.1,9.7,2.2,9.7,7.7c0,2-1.6,3.8-5.2,3.8
				C106.6,348.9,104.5,348,103.5,346.7z"/>
			<path class="st2" d="M122.9,348.1c-0.5,0.5-1.4,0.8-2.2,0.8c-1.8,0-2.7-1.1-2.7-2.8v-8.2h-2.2v-0.4h2.2v-2.5h0.4v2.5h3.8v0.4
				h-3.8v8c0,1.6,0.8,2.5,2.3,2.5c0.7,0,1.4-0.2,1.9-0.7L122.9,348.1z"/>
			<path class="st2" d="M133.9,341.4v7.4h-0.4v-2.4c-0.7,1.5-2.2,2.5-4.3,2.5c-2.5,0-4-1.3-4-3.2c0-1.6,1-3,4-3h4.3v-1.2
				c0-2.4-1.2-3.6-3.6-3.6c-1.7,0-3.1,0.6-4.1,1.6l-0.3-0.3c1.1-1,2.7-1.7,4.4-1.7C132.5,337.5,133.9,338.8,133.9,341.4z
				 M133.5,345.6v-2.5h-4.3c-2.6,0-3.6,1.1-3.6,2.6c0,1.7,1.3,2.8,3.6,2.8C131.4,348.4,132.8,347.4,133.5,345.6z"/>
			<path class="st2" d="M137.5,343.1c0-3.4,2.3-5.7,5.5-5.7c1.6,0,3.1,0.6,4.1,1.8l-0.3,0.3c-0.9-1.2-2.2-1.7-3.8-1.7
				c-2.9,0-5.1,2.2-5.1,5.3c0,3.1,2.2,5.3,5.1,5.3c1.5,0,2.9-0.6,3.8-1.7l0.3,0.3c-1,1.2-2.4,1.8-4.1,1.8
				C139.8,348.9,137.5,346.5,137.5,343.1z"/>
			<path class="st2" d="M154.3,342.3l-3.3,3v3.5h-0.4v-16.2h0.4v12.2l8-7.3h0.6l-4.9,4.5l5.4,6.8h-0.6L154.3,342.3z"/>
			<path class="st2" d="M166.4,333.5h7.5c5.1,0,8.6,2.9,8.6,7.6c0,4.7-3.5,7.6-8.6,7.6h-7.5V333.5z M173.7,344.8
				c2.2,0,3.6-1.3,3.6-3.6c0-2.3-1.5-3.6-3.6-3.6h-2.2v7.2H173.7z"/>
			<path class="st2" d="M196.9,344h-8.3c0.3,0.9,1.2,1.4,2.4,1.4c1.1,0,1.7-0.3,2.5-0.9l2.6,2.6c-1.2,1.3-2.8,1.9-5.2,1.9
				c-4.4,0-7.2-2.6-7.2-6.2c0-3.6,2.9-6.2,6.8-6.2c3.5,0,6.6,2.1,6.6,6.2C197,343.2,196.9,343.6,196.9,344z M188.5,341.6h3.8
				c-0.2-1-0.9-1.6-1.9-1.6C189.4,340,188.7,340.6,188.5,341.6z"/>
			<path class="st2" d="M211.6,336.9l-4.8,11.9h-5.1l-4.8-11.9h5.1l2.4,6.4l2.6-6.4H211.6z"/>
			<path class="st2" d="M224.6,344h-8.3c0.3,0.9,1.2,1.4,2.4,1.4c1.1,0,1.7-0.3,2.5-0.9l2.6,2.6c-1.2,1.3-2.8,1.9-5.2,1.9
				c-4.4,0-7.2-2.6-7.2-6.2c0-3.6,2.9-6.2,6.8-6.2c3.5,0,6.6,2.1,6.6,6.2C224.7,343.2,224.7,343.6,224.6,344z M216.3,341.6h3.8
				c-0.2-1-0.9-1.6-1.9-1.6C217.2,340,216.5,340.6,216.3,341.6z"/>
			<path class="st2" d="M226.3,332.6h4.9v16.2h-4.9V332.6z"/>
			<path class="st2" d="M232.7,342.8c0-3.6,2.9-6.2,6.9-6.2c4.1,0,6.9,2.6,6.9,6.2c0,3.6-2.9,6.2-6.9,6.2
				C235.6,349,232.7,346.4,232.7,342.8z M241.6,342.8c0-1.5-0.9-2.3-1.9-2.3c-1.1,0-1.9,0.8-1.9,2.3c0,1.5,0.9,2.4,1.9,2.4
				C240.8,345.2,241.6,344.4,241.6,342.8z"/>
			<path class="st2" d="M261.9,342.8c0,3.8-2.6,6.2-5.8,6.2c-1.3,0-2.3-0.3-3-1v5h-4.9v-16.2h4.7v1c0.7-0.8,1.8-1.2,3.3-1.2
				C259.2,336.6,261.9,339,261.9,342.8z M256.9,342.8c0-1.5-0.9-2.4-1.9-2.4c-1.1,0-1.9,0.8-1.9,2.4c0,1.5,0.9,2.3,1.9,2.3
				C256,345.2,256.9,344.4,256.9,342.8z"/>
			<path class="st2" d="M276.1,344h-8.3c0.3,0.9,1.2,1.4,2.4,1.4c1.1,0,1.7-0.3,2.5-0.9l2.6,2.6c-1.2,1.3-2.8,1.9-5.2,1.9
				c-4.4,0-7.2-2.6-7.2-6.2c0-3.6,2.9-6.2,6.8-6.2c3.5,0,6.6,2.1,6.6,6.2C276.1,343.2,276.1,343.6,276.1,344z M267.7,341.6h3.8
				c-0.2-1-0.9-1.6-1.9-1.6C268.6,340,267.9,340.6,267.7,341.6z"/>
			<path class="st2" d="M286.2,336.6v4.4c-0.4-0.1-0.7-0.1-1.1-0.1c-1.5,0-2.5,0.7-2.5,2.6v5.3h-4.9v-11.9h4.7v1.3
				C283.2,337.2,284.6,336.6,286.2,336.6z"/>
		</g>
	</g>
</g>
</svg>
