<?xml version="1.0" encoding="utf-8"?>
<!-- Generator: Adobe Illustrator 23.0.6, SVG Export Plug-In . SVG Version: 6.00 Build 0)  -->
<svg version="1.1" id="Layer_1" xmlns="http://www.w3.org/2000/svg" xmlns:xlink="http://www.w3.org/1999/xlink" x="0px" y="0px"
	 viewBox="0 0 750 1334" style="enable-background:new 0 0 750 1334;" xml:space="preserve">
<style type="text/css">
	.st0{fill:#161616;}
	.st1{fill:url(#SVGID_1_);}
	.st2{fill:#FFFFFF;}
</style>
<rect class="st0" width="750" height="1334"/>
<g>
	<g>
		<g>
			
				<linearGradient id="SVGID_1_" gradientUnits="userSpaceOnUse" x1="526.5805" y1="670.6762" x2="611.0942" y2="671.5214" gradientTransform="matrix(1 0 0 -1 0 1334)">
				<stop  offset="0" style="stop-color:#000000;stop-opacity:0"/>
				<stop  offset="0.8" style="stop-color:#29ABE2;stop-opacity:0.7"/>
				<stop  offset="0.8397" style="stop-color:#2CACE2;stop-opacity:0.5505"/>
				<stop  offset="0.8663" style="stop-color:#35B0E4;stop-opacity:0.4504"/>
				<stop  offset="0.8891" style="stop-color:#44B6E6;stop-opacity:0.3647"/>
				<stop  offset="0.9097" style="stop-color:#59BEE9;stop-opacity:0.2871"/>
				<stop  offset="0.9289" style="stop-color:#75C9EC;stop-opacity:0.2151"/>
				<stop  offset="0.947" style="stop-color:#97D6F1;stop-opacity:0.147"/>
				<stop  offset="0.9642" style="stop-color:#BFE6F6;stop-opacity:8.218569e-02"/>
				<stop  offset="0.9803" style="stop-color:#EDF8FD;stop-opacity:2.139705e-02"/>
				<stop  offset="0.986" style="stop-color:#FFFFFF;stop-opacity:0"/>
			</linearGradient>
			<path class="st1" d="M578.9,693.4c-1-1.1-1.9-2.1-3-3.1c-4.7,2.9-10.4,4.5-16.5,4.5c-11.6,0-19.6-7.2-19.6-17.8
				c0-8.1,4.8-13.1,10.4-16.9c-4.7-6.7-5.6-10.3-5.6-13.7c0-9.8,8-15.2,18.2-15.2c10,0,18.1,5.5,18.1,15.2c0,8.2-6.2,12.9-12.7,16.8
				c2.1,2.5,4.5,5.4,7.2,8.5c1-2.1,1.7-4.5,1.8-7h13c-0.3,6.7-2.4,12.7-5.7,17.5c3.1,3.5,6.4,7.2,10,11.4h-15.8V693.4z M567.3,680.5
				c-3.6-4.1-6.7-7.6-9.2-10.7c-2.2,1.9-3.6,4.1-3.6,6.7c0,3.3,2.5,5.5,6.4,5.5C563.1,682,565.2,681.4,567.3,680.5z M558.5,646.7
				c0,1.8,0.9,4,2.9,7c3.5-2.1,6.1-4.2,6.1-7c0-2.7-1.9-4.3-4.4-4.3C560.3,642.3,558.5,644,558.5,646.7z"/>
		</g>
	</g>
	<g>
		<g>
			<path class="st2" d="M220.3,645.2h0.7v10.1c-2.4,2.4-5.7,3.5-9.5,3.5c-8.1,0-14.2-5.9-14.2-13.9c0-8,6.1-13.9,14.2-13.9
				c3.7,0,7.1,1.1,9.5,3.5l-0.5,0.6c-2.5-2.4-5.5-3.3-9-3.3c-7.7,0-13.5,5.7-13.5,13.1s5.7,13.1,13.5,13.1c3.3,0,6.4-0.8,8.7-3.1
				V645.2z"/>
			<path class="st2" d="M238.8,638.2v0.8h-0.3c-4.9,0-7.8,3.3-7.8,8.7v10.9h-0.8v-20.3h0.8v5.3C231.9,640.2,234.7,638.2,238.8,638.2
				z"/>
			<path class="st2" d="M258.5,645.4v13.3h-0.8v-4.3c-1.3,2.7-4,4.4-7.8,4.4c-4.5,0-7.2-2.3-7.2-5.7c0-2.9,1.8-5.5,7.2-5.5h7.7v-2.2
				c0-4.3-2.2-6.4-6.5-6.4c-3.1,0-5.6,1.1-7.4,2.9l-0.6-0.6c1.9-1.8,4.8-3.1,8-3.1C255.9,638.2,258.5,640.7,258.5,645.4z
				 M257.6,652.9v-4.5h-7.8c-4.6,0-6.4,1.9-6.4,4.7c0,3.1,2.4,5,6.4,5S256.4,656.2,257.6,652.9z"/>
			<path class="st2" d="M287.1,648.5c0,6-4.3,10.3-9.9,10.3c-4.3,0-7.7-2.5-9.1-6.3v13.8h-0.8v-27.9h0.8v6.2
				c1.4-3.9,4.8-6.3,9.1-6.3C282.7,638.2,287.1,642.5,287.1,648.5z M286.2,648.5c0-5.6-3.9-9.5-9.1-9.5c-5.2,0-9.1,4-9.1,9.5
				c0,5.6,3.9,9.5,9.1,9.5C282.3,658,286.2,654.1,286.2,648.5z"/>
			<path class="st2" d="M311.1,646.7v12h-0.8v-12c0-5-2.7-7.7-7.3-7.7c-5.4,0-8.6,3.5-8.6,8.7v11.1h-0.8v-29.2h0.8v14.2
				c1.2-3.4,4.3-5.5,8.5-5.5C308,638.2,311.1,641.2,311.1,646.7z"/>
			<path class="st2" d="M319.3,631.7c0-0.6,0.5-1,1-1s1,0.5,1,1c0,0.6-0.5,1-1,1C319.8,632.7,319.3,632.2,319.3,631.7z M320,638.3
				h0.8v20.3H320V638.3z"/>
			<path class="st2" d="M327.4,648.5c0-6.1,4.3-10.3,10-10.3c2.9,0,5.5,1.1,7.3,3.3l-0.6,0.6c-1.6-2.1-4.1-3.1-6.8-3.1
				c-5.3,0-9.2,3.9-9.2,9.5s3.9,9.5,9.2,9.5c2.7,0,5.2-1,6.8-3.1l0.6,0.6c-1.8,2.2-4.4,3.3-7.3,3.3
				C331.6,658.8,327.4,654.5,327.4,648.5z"/>
			<path class="st2" d="M360.8,631.1h13.6c9.2,0,15.5,5.3,15.5,13.8s-6.4,13.8-15.5,13.8h-13.6V631.1z M374,651.5
				c3.9,0,6.6-2.3,6.6-6.6s-2.7-6.6-6.6-6.6h-3.9v13L374,651.5L374,651.5z"/>
			<path class="st2" d="M415.8,650h-15c0.6,1.7,2.1,2.5,4.3,2.5c1.9,0,3.1-0.6,4.5-1.6l4.6,4.7c-2.1,2.3-5.1,3.4-9.4,3.4
				c-8,0-13-4.7-13-11.2c0-6.6,5.3-11.1,12.2-11.1c6.4,0,11.8,3.9,11.8,11.1C415.9,648.5,415.8,649.3,415.8,650z M400.6,645.7h6.9
				c-0.4-1.8-1.7-2.9-3.4-2.9C402.3,642.9,401,643.9,400.6,645.7z"/>
			<path class="st2" d="M417.4,656.9l2.4-5.8c2,1.2,5,1.9,7.5,1.9c2.1,0,2.8-0.4,2.8-1c0-2.2-12.4,0.7-12.4-7.9
				c0-4.1,3.8-7.4,11-7.4c3.1,0,6.5,0.6,8.8,1.8l-2.4,5.8c-2.2-1.2-4.4-1.6-6.2-1.6c-2.3,0-2.9,0.6-2.9,1c0,2.2,12.4-0.6,12.4,8
				c0,3.9-3.7,7.3-11.1,7.3C423.4,659,419.6,658.2,417.4,656.9z"/>
			<path class="st2" d="M440,630.9c0-2.6,2.1-4.5,5.4-4.5s5.4,1.8,5.4,4.3c0,2.7-2.1,4.7-5.4,4.7C442,635.5,440,633.4,440,630.9z
				 M440.9,637.1h8.9v21.5h-8.9V637.1z"/>
			<path class="st2" d="M477.7,637.1v17.2c0,8.3-4.9,12.3-13.1,12.3c-4.3,0-8.1-0.9-10.8-2.7l3-6.1c1.7,1.3,4.5,2.1,6.8,2.1
				c3.7,0,5.1-1.6,5.1-4.5v-0.4c-1.3,1.6-3.3,2.3-5.9,2.3c-5.5,0-10.4-4-10.4-10.4s4.9-10.4,10.4-10.4c3,0,5,0.9,6.4,2.9v-2.4
				L477.7,637.1L477.7,637.1z M469,647.1c0-2.1-1.6-3.4-3.7-3.4s-3.7,1.3-3.7,3.4c0,2.1,1.6,3.4,3.7,3.4S469,649.2,469,647.1z"/>
			<path class="st2" d="M505.5,646.4v12.3h-8.9V648c0-2.7-1-3.7-2.7-3.7c-1.8,0-3.3,1.1-3.3,4.3v10.1h-8.9v-21.5h8.4v2.1
				c1.7-1.7,4-2.5,6.5-2.5C501.6,636.8,505.5,639.6,505.5,646.4z"/>
			<path class="st2" d="M532.5,650h-15c0.6,1.7,2.1,2.5,4.3,2.5c1.9,0,3.1-0.6,4.5-1.6l4.6,4.7c-2.1,2.3-5.1,3.4-9.4,3.4
				c-8,0-13-4.7-13-11.2c0-6.6,5.3-11.1,12.2-11.1c6.4,0,11.8,3.9,11.8,11.1C532.6,648.5,532.6,649.3,532.5,650z M517.4,645.7h6.9
				c-0.4-1.8-1.7-2.9-3.4-2.9C519,642.9,517.8,643.9,517.4,645.7z"/>
			<path class="st2" d="M550.8,636.8v7.9c-0.8-0.1-1.3-0.2-1.9-0.2c-2.7,0-4.5,1.2-4.5,4.6v9.6h-8.9v-21.5h8.4v2.3
				C545.4,637.7,547.8,636.8,550.8,636.8z"/>
		</g>
	</g>
	<g>
		<g>
			<path class="st2" d="M150.5,667.8v13h15v0.7h-15v12.7h-0.7v-27.2h17.5v0.7L150.5,667.8L150.5,667.8z"/>
			<path class="st2" d="M189.5,674.1v20.1h-0.7v-5.4c-1.2,3.3-4,5.5-8,5.5c-5.1,0-8.2-3-8.2-8.3v-11.8h0.7V686c0,5,2.7,7.6,7.4,7.6
				c5.1,0,8.1-3.4,8.1-8.5v-10.9L189.5,674.1L189.5,674.1z"/>
			<path class="st2" d="M198.5,665.4h0.7v28.9h-0.7V665.4z"/>
			<path class="st2" d="M208.2,665.4h0.7v28.9h-0.7V665.4z"/>
			<path class="st2" d="M225.4,690.5l0.6-0.5c1.7,2,5.2,3.6,9,3.6c5.9,0,8.5-2.7,8.5-6.1c0-9.2-17.3-3.8-17.3-13.8
				c0-3.6,2.7-6.8,9.1-6.8c3,0,5.9,1,7.9,2.5l-0.5,0.6c-2.2-1.6-5-2.4-7.4-2.4c-5.7,0-8.3,2.8-8.3,6.1c0,9.2,17.3,3.9,17.3,13.8
				c0,3.6-2.9,6.8-9.2,6.8C230.9,694.4,227.2,692.8,225.4,690.5z"/>
			<path class="st2" d="M260.1,692.9c-0.9,1-2.5,1.5-3.9,1.5c-3.1,0-4.9-1.9-4.9-4.9V675h-3.9v-0.7h3.9v-4.4h0.7v4.3h6.8v0.7H252
				v14.3c0,2.9,1.4,4.3,4.2,4.3c1.3,0,2.5-0.5,3.3-1.2L260.1,692.9z"/>
			<path class="st2" d="M279.6,681.1v13.1h-0.7v-4.3c-1.3,2.7-3.9,4.3-7.7,4.3c-4.5,0-7.1-2.2-7.1-5.6c0-2.9,1.8-5.4,7.1-5.4h7.6
				v-2.2c0-4.2-2.2-6.3-6.4-6.3c-3,0-5.5,1.1-7.3,2.8l-0.6-0.6c1.9-1.8,4.8-3,7.8-3C277.1,674,279.6,676.5,279.6,681.1z
				 M278.8,688.5V684h-7.7c-4.5,0-6.3,1.9-6.3,4.6c0,3.1,2.3,4.9,6.3,4.9C275,693.6,277.5,691.8,278.8,688.5z"/>
			<path class="st2" d="M285.9,684.2c0-6,4.2-10.2,9.9-10.2c2.9,0,5.5,1.1,7.2,3.2l-0.6,0.6c-1.6-2.1-4-3.1-6.7-3.1
				c-5.3,0-9.1,3.9-9.1,9.4c0,5.5,3.9,9.4,9.1,9.4c2.7,0,5.1-1,6.7-3.1l0.6,0.6c-1.7,2.2-4.3,3.2-7.2,3.2
				C290.1,694.4,285.9,690.2,285.9,684.2z"/>
			<path class="st2" d="M315.8,682.6l-5.9,5.4v6.2h-0.7v-28.9h0.7V687L324,674h1.1l-8.8,8l9.6,12.1h-0.9L315.8,682.6z"/>
			<path class="st2" d="M337.5,667.1h13.4c9.1,0,15.4,5.2,15.4,13.6c0,8.4-6.3,13.6-15.4,13.6h-13.4V667.1z M350.4,687.1
				c3.9,0,6.5-2.3,6.5-6.5s-2.7-6.5-6.5-6.5h-3.9V687L350.4,687.1L350.4,687.1z"/>
			<path class="st2" d="M391.7,685.7h-14.8c0.6,1.7,2.1,2.5,4.3,2.5c1.9,0,3.1-0.5,4.4-1.6l4.6,4.6c-2,2.2-5.1,3.4-9.2,3.4
				c-7.8,0-12.9-4.7-12.9-11c0-6.5,5.2-11,12-11c6.3,0,11.7,3.8,11.7,11C391.8,684.2,391.7,685,391.7,685.7z M376.8,681.4h6.8
				c-0.4-1.8-1.7-2.9-3.4-2.9C378.4,678.6,377.1,679.7,376.8,681.4z"/>
			<path class="st2" d="M417.9,673l-8.5,21.3h-9.1l-8.5-21.3h9l4.3,11.4l4.6-11.4H417.9z"/>
			<path class="st2" d="M441.1,685.7h-14.8c0.6,1.7,2.1,2.5,4.3,2.5c1.9,0,3.1-0.5,4.4-1.6l4.6,4.6c-2,2.2-5.1,3.4-9.2,3.4
				c-7.8,0-12.9-4.7-12.9-11c0-6.5,5.2-11,12-11c6.3,0,11.7,3.8,11.7,11C441.3,684.2,441.2,685,441.1,685.7z M426.2,681.4h6.8
				c-0.4-1.8-1.7-2.9-3.4-2.9C427.8,678.6,426.6,679.7,426.2,681.4z"/>
			<path class="st2" d="M444.1,665.4h8.8v28.9h-8.8V665.4z"/>
			<path class="st2" d="M455.5,683.6c0-6.5,5.2-11,12.4-11s12.4,4.5,12.4,11c0,6.5-5.1,11-12.4,11
				C460.7,694.7,455.5,690,455.5,683.6z M471.4,683.6c0-2.8-1.5-4.2-3.4-4.2c-1.9,0-3.4,1.4-3.4,4.2s1.5,4.2,3.4,4.2
				C469.9,687.8,471.4,686.3,471.4,683.6z"/>
			<path class="st2" d="M507.5,683.6c0,6.8-4.7,11-10.3,11c-2.3,0-4.2-0.6-5.4-1.8v9h-8.8V673h8.3v1.8c1.3-1.5,3.1-2.1,5.8-2.1
				C502.8,672.6,507.5,676.8,507.5,683.6z M498.5,683.6c0-2.8-1.5-4.2-3.4-4.2s-3.4,1.5-3.4,4.2c0,2.8,1.5,4.2,3.4,4.2
				S498.5,686.4,498.5,683.6z"/>
			<path class="st2" d="M532.8,685.7H518c0.6,1.7,2.1,2.5,4.3,2.5c1.9,0,3.1-0.5,4.4-1.6l4.6,4.6c-2,2.2-5.1,3.4-9.2,3.4
				c-7.8,0-12.9-4.7-12.9-11c0-6.5,5.2-11,12-11c6.3,0,11.7,3.8,11.7,11C532.9,684.2,532.8,685,532.8,685.7z M517.8,681.4h6.8
				c-0.4-1.8-1.7-2.9-3.4-2.9S518.2,679.7,517.8,681.4z"/>
			<path class="st2" d="M550.9,672.6v7.8c-0.7-0.1-1.3-0.2-1.9-0.2c-2.7,0-4.5,1.2-4.5,4.6v9.4h-8.8V673h8.3v2.3
				C545.5,673.5,547.9,672.6,550.9,672.6z"/>
		</g>
	</g>
</g>
</svg>
