<?xml version="1.0" encoding="utf-8"?>
<!-- Generator: Adobe Illustrator 23.0.6, SVG Export Plug-In . SVG Version: 6.00 Build 0)  -->
<svg version="1.1" id="Layer_1" xmlns="http://www.w3.org/2000/svg" xmlns:xlink="http://www.w3.org/1999/xlink" x="0px" y="0px"
	 viewBox="0 0 1920 1080" style="enable-background:new 0 0 1920 1080;" xml:space="preserve">
<style type="text/css">
	.st0{fill:#161616;}
	.st1{fill:url(#SVGID_1_);}
	.st2{fill:#FFFFFF;}
</style>
<g>
	<rect x="-0.2" class="st0" width="1920.5" height="1080"/>
</g>
<g>
	<g>
		
			<image style="overflow:visible;opacity:0.75;" width="168" height="190" xlink:href="1FCCC1EC.png"  transform="matrix(1 0 0 1 1372 449)">
		</image>
		<g>
			<g>
				<linearGradient id="SVGID_1_" gradientUnits="userSpaceOnUse" x1="1346.829" y1="537.9299" x2="1558.5936" y2="535.8122">
					<stop  offset="0" style="stop-color:#000000;stop-opacity:0"/>
					<stop  offset="0.8" style="stop-color:#29ABE2;stop-opacity:0.7"/>
					<stop  offset="0.8397" style="stop-color:#2CACE2;stop-opacity:0.5505"/>
					<stop  offset="0.8663" style="stop-color:#35B0E4;stop-opacity:0.4504"/>
					<stop  offset="0.8891" style="stop-color:#44B6E6;stop-opacity:0.3647"/>
					<stop  offset="0.9097" style="stop-color:#59BEE9;stop-opacity:0.2871"/>
					<stop  offset="0.9289" style="stop-color:#75C9EC;stop-opacity:0.2151"/>
					<stop  offset="0.947" style="stop-color:#97D6F1;stop-opacity:0.147"/>
					<stop  offset="0.9642" style="stop-color:#BFE6F6;stop-opacity:8.218569e-02"/>
					<stop  offset="0.9803" style="stop-color:#EDF8FD;stop-opacity:2.139705e-02"/>
					<stop  offset="0.986" style="stop-color:#FFFFFF;stop-opacity:0"/>
				</linearGradient>
				<path class="st1" d="M1478.1,613.4c-2.5-2.7-4.9-5.4-7.3-8c-11.8,7.2-25.9,11.3-41.3,11.3c-29,0-49.1-18-49.1-44.5
					c0-20.4,12.1-33,26.1-42.4c-11.8-16.8-14.2-25.6-14.2-34.4c0-24.5,20.3-38,45.7-38c25.1,0,45.4,13.7,45.4,37.9
					c0,20.6-15.5,32.3-31.6,42.1c5.2,6.3,11.3,13.4,18.1,21.3c2.5-5.4,4.1-11.3,4.7-17.6h32.7c-0.7,16.7-5.9,31.7-14.5,43.8
					c7.6,8.7,15.9,18.2,24.9,28.5H1478.1z M1448.8,581.1c-9.1-10.2-16.7-19-23.2-26.8c-5.5,4.8-9.1,10.1-9.1,16.7
					c0,8.4,6.3,14,16,14C1438.2,585,1443.7,583.6,1448.8,581.1z M1426.7,496.4c0,4.3,2.4,10,7.3,17.5c8.9-5.3,15.3-10.5,15.3-17.5
					c0-6.8-4.9-10.9-11.2-10.9C1431.5,485.5,1426.7,489.6,1426.7,496.4z"/>
			</g>
		</g>
	</g>
	<g>
		
			<image style="overflow:visible;opacity:0.75;" width="917" height="132" xlink:href="1FCCC1E6.png"  transform="matrix(1 0 0 1 513 437)">
		</image>
		<g>
			<g>
				<path class="st2" d="M579.5,492.6h1.9v25.2c-5.9,5.9-14.4,8.9-23.8,8.9c-20.5,0-35.7-14.9-35.7-34.8s15.2-34.8,35.7-34.8
					c9.4,0,17.8,2.9,23.8,8.8l-1.2,1.4c-6.3-6-13.9-8.3-22.6-8.3c-19.3,0-33.7,14.3-33.7,32.9s14.4,32.9,33.7,32.9
					c8.4,0,16-2.2,21.9-7.8V492.6z"/>
				<path class="st2" d="M625.7,475.2v2h-0.6c-12.2,0-19.4,8.4-19.4,21.9v27.4h-2v-51h2v13.2C608.5,480.1,615.4,475.2,625.7,475.2z"
					/>
				<path class="st2" d="M675,493v33.4h-2v-10.8c-3.3,6.8-9.9,11.1-19.4,11.1c-11.4,0-18-5.7-18-14.3c0-7.3,4.5-13.7,18.1-13.7H673
					v-5.6c0-10.6-5.6-16.1-16.2-16.1c-7.6,0-14.1,2.9-18.5,7.1l-1.4-1.4c4.8-4.6,12.1-7.6,19.8-7.6C668.6,475.2,675,481.4,675,493z
					 M673,511.9v-11.2h-19.4c-11.5,0-16.1,4.9-16.1,11.7c0,7.7,5.9,12.5,16.1,12.5C663.5,524.9,669.7,520.1,673,511.9z"/>
				<path class="st2" d="M746.6,501c0,15.1-10.7,25.7-24.7,25.7c-10.6,0-19.3-6.2-22.8-15.8v34.6h-2v-70.1h2v15.6
					c3.5-9.7,12.1-15.9,22.8-15.9C735.8,475.2,746.6,485.9,746.6,501z M744.6,501c0-14.1-9.8-24-22.8-24c-13,0-22.8,9.9-22.8,24
					c0,14.1,9.8,23.9,22.8,23.9C734.8,524.9,744.6,515.1,744.6,501z"/>
				<path class="st2" d="M807,496.4v30.1h-2v-30.1c0-12.6-6.8-19.3-18.3-19.3c-13.4,0-21.5,8.8-21.5,21.7v27.7h-2v-73.2h2v35.8
					c3.1-8.5,10.5-13.9,21.4-13.9C799.1,475.2,807,482.6,807,496.4z"/>
				<path class="st2" d="M827.5,458.8c0-1.4,1.2-2.6,2.6-2.6c1.4,0,2.6,1.2,2.6,2.6c0,1.4-1.2,2.6-2.6,2.6
					C828.7,461.4,827.5,460.2,827.5,458.8z M829.1,475.5h2v51h-2V475.5z"/>
				<path class="st2" d="M847.7,500.9c0-15.2,10.5-25.7,25-25.7c7.3,0,14,2.8,18.3,8.3l-1.4,1.5c-3.9-5.3-10.2-7.9-17-7.9
					c-13.3,0-23.1,9.8-23.1,23.9c0,14.2,9.8,24,23.1,24c6.8,0,13-2.6,17-7.9l1.4,1.5c-4.3,5.5-11,8.3-18.3,8.3
					C858.3,526.8,847.7,516.1,847.7,500.9z"/>
				<path class="st2" d="M931.3,457.4h34c23.1,0,38.9,13.1,38.9,34.5c0,21.4-15.9,34.5-38.9,34.5h-34V457.4z M964.4,508.3
					c9.8,0,16.5-5.8,16.5-16.4s-6.7-16.4-16.5-16.4h-9.8v32.7H964.4z"/>
				<path class="st2" d="M1069.2,504.7h-37.5c1.6,4.1,5.3,6.3,10.8,6.3c4.9,0,7.7-1.3,11.2-3.9l11.6,11.7
					c-5.2,5.7-12.8,8.7-23.6,8.7c-19.8,0-32.6-11.9-32.6-28c0-16.4,13.1-27.9,30.6-27.9c16,0,29.7,9.7,29.7,27.9
					C1069.5,501,1069.3,503.1,1069.2,504.7z M1031.3,493.9h17.4c-0.9-4.5-4.1-7.2-8.7-7.2C1035.3,486.7,1032.2,489.4,1031.3,493.9z"
					/>
				<path class="st2" d="M1073.1,522.1l6.1-14.7c5.1,3.1,12.4,4.8,18.8,4.8c5.4,0,6.9-1,6.9-2.6c0-5.5-31.1,1.9-31.1-19.7
					c0-10.2,9.5-18.4,27.6-18.4c7.9,0,16.3,1.5,22,4.4l-6.1,14.7c-5.5-3.1-11-3.9-15.6-3.9c-5.7,0-7.3,1.3-7.3,2.6
					c0,5.6,31-1.7,31,19.9c0,9.8-9.2,18.2-27.9,18.2C1088.3,527.4,1078.6,525.3,1073.1,522.1z"/>
				<path class="st2" d="M1129.9,456.9c0-6.4,5.2-11.3,13.4-11.3s13.4,4.5,13.4,10.9c0,6.8-5.2,11.7-13.4,11.7
					S1129.9,463.3,1129.9,456.9z M1132.2,472.5h22.3v53.9h-22.3V472.5z"/>
				<path class="st2" d="M1224.5,472.5v43.2c0,20.9-12.2,30.9-32.8,30.9c-10.6,0-20.3-2.3-27-6.7l7.5-15.2
					c4.2,3.3,11.4,5.3,17.3,5.3c9.2,0,12.8-4,12.8-11.2v-1c-3.4,3.8-8.3,5.7-14.9,5.7c-13.7,0-25.9-10.1-25.9-26
					c0-16,12.2-25.9,25.9-25.9c7.4,0,12.6,2.3,16,7.1v-6.1H1224.5z M1202.5,497.5c0-5.2-3.9-8.6-9.2-8.6c-5.2,0-9.3,3.4-9.3,8.6
					s4,8.7,9.3,8.7C1198.5,506.2,1202.5,502.7,1202.5,497.5z"/>
				<path class="st2" d="M1293.9,495.7v30.8h-22.3v-26.9c0-6.7-2.6-9.3-6.6-9.3c-4.5,0-8.4,2.9-8.4,10.8v25.3h-22.3v-53.9h21.2v5.3
					c4.2-4.2,10-6.3,16.3-6.3C1284.3,471.5,1293.9,478.7,1293.9,495.7z"/>
				<path class="st2" d="M1361.7,504.7h-37.5c1.6,4.1,5.3,6.3,10.8,6.3c4.9,0,7.7-1.3,11.2-3.9l11.6,11.7
					c-5.2,5.7-12.8,8.7-23.6,8.7c-19.8,0-32.6-11.9-32.6-28c0-16.4,13.1-27.9,30.6-27.9c16,0,29.7,9.7,29.7,27.9
					C1362,501,1361.8,503.1,1361.7,504.7z M1323.8,493.9h17.4c-0.9-4.5-4.1-7.2-8.7-7.2C1327.9,486.7,1324.7,489.4,1323.8,493.9z"/>
				<path class="st2" d="M1407.6,471.5v19.7c-2-0.3-3.4-0.4-4.9-0.4c-6.7,0-11.4,3.1-11.4,11.6v24H1369v-53.9h21.2v5.8
					C1394.1,473.8,1400.1,471.5,1407.6,471.5z"/>
			</g>
		</g>
	</g>
	<g>
		
			<image style="overflow:visible;opacity:0.75;" width="1036" height="122" xlink:href="1FCCC1E7.png"  transform="matrix(1 0 0 1 394 535)">
		</image>
		<g>
			<g>
				<path class="st2" d="M404.4,549.3V582H442v1.8h-37.6v31.7h-1.9v-68.1h43.9v1.8H404.4z"/>
				<path class="st2" d="M502.2,565.3v50.3h-1.9v-13.3c-2.9,8.4-10,13.6-20.2,13.6c-12.8,0-20.6-7.3-20.6-20.9v-29.7h1.9V595
					c0,12.5,6.8,19.1,18.6,19.1c12.7,0,20.3-8.7,20.3-21.4v-27.4H502.2z"/>
				<path class="st2" d="M524.6,543.4h1.9v72.2h-1.9V543.4z"/>
				<path class="st2" d="M549,543.4h1.9v72.2H549V543.4z"/>
				<path class="st2" d="M592.1,606.2l1.4-1.3c4.3,5.1,12.9,9.1,22.5,9.1c14.8,0,21.4-6.8,21.4-15.2c0-22.9-43.3-9.4-43.3-34.6
					c0-9,6.8-17.1,22.8-17.1c7.3,0,14.8,2.4,19.8,6.2l-1.1,1.6c-5.5-4-12.5-5.9-18.6-5.9c-14.3,0-20.9,6.9-20.9,15.4
					c0,23,43.3,9.8,43.3,34.5c0,9.1-7.1,17-23.3,17C606.1,615.9,596.7,611.9,592.1,606.2z"/>
				<path class="st2" d="M678.9,612.3c-2.3,2.4-6.2,3.6-9.8,3.6c-8,0-12.2-5-12.2-12.4v-36.4h-9.7v-1.8h9.7v-11h1.9v11h17v1.8h-17
					V603c0,7.1,3.5,11,10.3,11c3.2,0,6.2-1.1,8.4-3.1L678.9,612.3z"/>
				<path class="st2" d="M728,582.6v33H726v-10.7c-3.2,6.7-9.7,11-19.2,11c-11.3,0-17.8-5.6-17.8-14.1c0-7.2,4.5-13.5,17.9-13.5H726
					v-5.5c0-10.5-5.5-15.9-16-15.9c-7.5,0-13.9,2.8-18.3,7l-1.4-1.4c4.8-4.6,12-7.5,19.6-7.5C721.7,565,728,571.1,728,582.6z
					 M726,601.2v-11.1h-19.2c-11.4,0-15.9,4.9-15.9,11.6c0,7.6,5.8,12.4,15.9,12.4C716.6,614,722.7,609.4,726,601.2z"/>
				<path class="st2" d="M743.9,590.4c0-15,10.4-25.4,24.7-25.4c7.2,0,13.8,2.7,18.1,8.2l-1.4,1.5c-3.9-5.3-10-7.8-16.7-7.8
					c-13.1,0-22.8,9.6-22.8,23.6c0,14,9.6,23.7,22.8,23.7c6.7,0,12.9-2.5,16.7-7.8l1.4,1.5c-4.3,5.5-10.9,8.2-18.1,8.2
					C754.3,615.9,743.9,605.4,743.9,590.4z"/>
				<path class="st2" d="M818.7,586.5L803.8,600v15.6h-1.9v-72.2h1.9v54.3l35.5-32.4h2.8l-21.9,20.1l24.1,30.3h-2.5L818.7,586.5z"/>
				<path class="st2" d="M872.9,547.4h33.6c22.8,0,38.5,12.9,38.5,34.1c0,21.1-15.7,34.1-38.5,34.1h-33.6V547.4z M905.5,597.7
					c9.6,0,16.3-5.7,16.3-16.2c0-10.4-6.6-16.2-16.3-16.2h-9.6v32.3H905.5z"/>
				<path class="st2" d="M1009,594.1h-37c1.6,4.1,5.3,6.2,10.7,6.2c4.9,0,7.6-1.3,11.1-3.9l11.5,11.6c-5.2,5.6-12.7,8.6-23.3,8.6
					c-19.6,0-32.2-11.8-32.2-27.6c0-16.2,12.9-27.6,30.2-27.6c15.8,0,29.3,9.5,29.3,27.6C1009.3,590.5,1009.1,592.5,1009,594.1z
					 M971.6,583.5h17.1c-0.9-4.5-4.1-7.1-8.6-7.1C975.6,576.4,972.5,579,971.6,583.5z"/>
				<path class="st2" d="M1074.5,562.3l-21.4,53.3h-22.8l-21.4-53.3h22.6l10.7,28.5l11.5-28.5H1074.5z"/>
				<path class="st2" d="M1132.8,594.1h-37c1.6,4.1,5.3,6.2,10.7,6.2c4.9,0,7.6-1.3,11.1-3.9l11.5,11.6c-5.2,5.6-12.7,8.6-23.3,8.6
					c-19.6,0-32.2-11.8-32.2-27.6c0-16.2,12.9-27.6,30.2-27.6c15.8,0,29.3,9.5,29.3,27.6C1133.1,590.5,1132.9,592.5,1132.8,594.1z
					 M1095.4,583.5h17.1c-0.9-4.5-4.1-7.1-8.6-7.1C1099.4,576.4,1096.3,579,1095.4,583.5z"/>
				<path class="st2" d="M1140,543.4h22v72.2h-22V543.4z"/>
				<path class="st2" d="M1168.9,588.9c0-16.2,12.9-27.6,31-27.6c18.1,0,31,11.4,31,27.6s-12.9,27.6-31,27.6
					C1181.9,616.6,1168.9,605.1,1168.9,588.9z M1208.5,588.9c0-6.9-3.8-10.4-8.7-10.4s-8.7,3.5-8.7,10.4c0,6.9,3.8,10.5,8.7,10.5
					S1208.5,595.8,1208.5,588.9z"/>
				<path class="st2" d="M1299,589c0,17.1-11.8,27.6-25.7,27.6c-5.8,0-10.3-1.5-13.5-4.6v22.5h-22v-72.1h20.9v4.4
					c3.2-3.6,8-5.4,14.6-5.4C1287.2,561.4,1299,571.9,1299,589z M1276.7,589c0-6.9-3.8-10.5-8.7-10.5c-4.9,0-8.7,3.6-8.7,10.5
					c0,6.9,3.8,10.4,8.7,10.4C1272.9,599.4,1276.7,595.9,1276.7,589z"/>
				<path class="st2" d="M1362.3,594.1h-37c1.6,4.1,5.3,6.2,10.7,6.2c4.9,0,7.6-1.3,11.1-3.9l11.5,11.6c-5.2,5.6-12.7,8.6-23.3,8.6
					c-19.6,0-32.2-11.8-32.2-27.6c0-16.2,12.9-27.6,30.2-27.6c15.8,0,29.3,9.5,29.3,27.6C1362.6,590.5,1362.4,592.5,1362.3,594.1z
					 M1324.9,583.5h17.1c-0.9-4.5-4.1-7.1-8.6-7.1C1328.9,576.4,1325.8,579,1324.9,583.5z"/>
				<path class="st2" d="M1407.6,561.4v19.5c-1.9-0.3-3.3-0.4-4.9-0.4c-6.6,0-11.3,3-11.3,11.5v23.7h-22v-53.3h20.9v5.7
					C1394.3,563.6,1400.2,561.4,1407.6,561.4z"/>
			</g>
		</g>
	</g>
</g>
</svg>
