<?xml version="1.0" encoding="utf-8"?>
<!-- Generator: Adobe Illustrator 23.0.6, SVG Export Plug-In . SVG Version: 6.00 Build 0)  -->
<svg version="1.1" id="Layer_1" xmlns="http://www.w3.org/2000/svg" xmlns:xlink="http://www.w3.org/1999/xlink" x="0px" y="0px"
	 viewBox="0 0 30.2 29.4" style="enable-background:new 0 0 30.2 29.4;" xml:space="preserve">
<style type="text/css">
	.st0{fill-rule:evenodd;clip-rule:evenodd;fill:#FFFFFF;}
</style>
<g>
	<path class="st0" d="M15.1,0.1c-8.3,0-15,6.7-15,15c0,6.6,4.3,12.2,10.3,14.2c0.8,0.1,1-0.3,1-0.7c0-0.4,0-1.3,0-2.6
		c-4.2,0.9-5.1-2-5.1-2c-0.7-1.7-1.7-2.2-1.7-2.2c-1.4-0.9,0.1-0.9,0.1-0.9C6.2,21,7,22.4,7,22.4c1.3,2.3,3.5,1.6,4.4,1.2
		c0.1-1,0.5-1.6,1-2C9,21.3,5.5,20,5.5,14.3c0-1.6,0.6-3,1.5-4c-0.2-0.4-0.7-1.9,0.1-4c0,0,1.3-0.4,4.1,1.5c1.2-0.3,2.5-0.5,3.8-0.5
		c1.3,0,2.6,0.2,3.8,0.5C21.7,5.9,23,6.3,23,6.3c0.8,2.1,0.3,3.6,0.1,4c1,1,1.5,2.4,1.5,4c0,5.8-3.5,7-6.8,7.4c0.5,0.5,1,1.4,1,2.8
		c0,2,0,3.6,0,4.1c0,0.4,0.3,0.9,1,0.7c6-2,10.2-7.6,10.2-14.2C30.1,6.8,23.4,0.1,15.1,0.1z"/>
</g>
</svg>
