<?xml version="1.0" encoding="utf-8"?>
<!-- Generator: Adobe Illustrator 23.0.6, SVG Export Plug-In . SVG Version: 6.00 Build 0)  -->
<svg version="1.1" id="Layer_1" xmlns="http://www.w3.org/2000/svg" xmlns:xlink="http://www.w3.org/1999/xlink" x="0px" y="0px"
	 viewBox="0 0 500 84" style="enable-background:new 0 0 500 84;" xml:space="preserve">
<style type="text/css">
	.st0{fill:#FFFFFF;}
</style>
<g>
	<g>
		<g>
			<g>
				<path class="st0" d="M3.5,5.1h13.9v49.7H3.5V5.1z"/>
				<path class="st0" d="M73.4,5.1l-19,49.7H41.6L22.2,5.1h15.6L47.9,36l9.9-30.9H73.4z"/>
				<path class="st0" d="M103,46.8H85.4l-2.8,8.1H68L87.5,5.1h13.4l20,49.7h-15.1L103,46.8z M94.2,20.7l-5.4,15.4h10.9L94.2,20.7z"
					/>
				<path class="st0" d="M170,5.1v49.7h-11.3l-19.7-27v27h-13.3V5.1h12l19.1,26.1V5.1H170z"/>
				<path class="st0" d="M230.4,17.5h-13.5v37.4h-13.8V17.5h-13.5V5.1h40.8V17.5z"/>
				<path class="st0" d="M271.2,16.5v38.3H261l-1.1-2.7c-3.1,2.5-7.1,4-11.6,4c-11.7,0-20.1-8.6-20.1-20.5
					c0-11.9,8.4-20.3,20.1-20.3c4.5,0,8.6,1.5,11.7,4.1l1.4-3L271.2,16.5z M258.6,35.7c0-5-3.6-8.7-8.6-8.7c-5,0-8.6,3.7-8.6,8.7
					c0,5,3.6,8.7,8.6,8.7C255,44.4,258.6,40.7,258.6,35.7z"/>
				<path class="st0" d="M294.3,56.1c-10.5,0-16.8-5.5-16.9-13.8h12.7c0,2.8,2,4.1,4.5,4.1c1.9,0,3.8-1,3.8-3c0-2.2-2.9-2.8-6.6-3.5
					c-5.9-1-13.8-2.8-13.8-12.1c0-7.7,6.6-12.6,16.4-12.6c9.8,0,16.1,5.2,16.2,13h-12.4c0-2.4-1.6-3.6-4-3.6c-2.1,0-3.5,1-3.5,2.8
					c0,2.2,2.9,2.7,6.6,3.3c6.1,1.1,14.1,2.3,14.1,12.1C311.3,50.9,304.5,56.1,294.3,56.1L294.3,56.1z"/>
				<path class="st0" d="M356.9,35.3c0,1.2-0.1,2.3-0.3,3.5h-28.5c0.9,4.4,3.7,6.7,7.8,6.7c3.1,0,5.7-1.4,6.9-3.6h13.1
					c-2.7,8.8-10.5,14.2-20.1,14.2c-12,0-20.8-8.7-20.8-20.5c0-11.8,8.8-20.4,20.8-20.4C348.4,15.3,356.9,24.1,356.9,35.3
					L356.9,35.3z M328.4,31.5h15.5c-1.2-3.8-3.9-5.9-7.9-5.9C332.2,25.6,329.5,27.7,328.4,31.5z"/>
				<path class="st0" d="M400.2,16.5l-15.4,38.3h-12l-15.6-38.3h14.5l7.2,22.7l7.2-22.7H400.2z"/>
				<path class="st0" d="M417.8,56.1c-10.5,0-16.8-5.5-16.9-13.8h12.7c0,2.8,2,4.1,4.5,4.1c1.9,0,3.8-1,3.8-3c0-2.2-2.9-2.8-6.6-3.5
					c-5.9-1-13.8-2.8-13.8-12.1c0-7.7,6.6-12.6,16.4-12.6c9.8,0,16.1,5.2,16.2,13h-12.4c0-2.4-1.6-3.6-4-3.6c-2.1,0-3.5,1-3.5,2.8
					c0,2.2,2.9,2.7,6.6,3.3c6.1,1.1,14.1,2.3,14.1,12.1C434.8,50.9,428,56.1,417.8,56.1L417.8,56.1z"/>
				<path class="st0" d="M464.3,54.9l-9.6-16.2v16.2h-13.2V2.7h13.2v28.9l9.1-15h14.8l-12,18.3l13.2,20.1H464.3z"/>
				<path class="st0" d="M483.3,16.5h13.2v38.3h-13.2V16.5z M483.4,0.5h13v11.2h-13V0.5z"/>
			</g>
		</g>
		<g>
			<g>
				<path class="st0" d="M19,65.2v17.9h-1V67.2L5.7,83.2H5V65.2h1v15.9l12.3-15.9H19z"/>
				<path class="st0" d="M59.7,78.3c0,2.8-2.3,4.9-5.3,4.9h-8.3V65.2h8.2c2.9,0,4.8,1.8,4.8,4.4c0,2-1.2,3.5-2.9,4.1
					C58.3,74.3,59.7,76,59.7,78.3z M54.2,66.2h-7.1v7h7.1c2.3,0,3.8-1.4,3.8-3.5C58,67.6,56.5,66.2,54.2,66.2z M58.6,78.2
					c0-2.3-1.8-3.9-4.4-3.9h-7.1v7.9h7.2C56.8,82.1,58.6,80.5,58.6,78.2z"/>
				<path class="st0" d="M102.3,65.2v17.9h-0.9l-0.1-4.7c-1.4,3-4.4,5-8.2,5c-5.2,0-9.1-4-9.1-9.3c0-5.3,3.9-9.3,9.1-9.3
					c3.8,0,6.7,2,8.2,5l0.1-4.7L102.3,65.2z M101.2,74.2c0-4.8-3.4-8.3-8.1-8.3c-4.6,0-8.1,3.6-8.1,8.3c0,4.7,3.5,8.3,8.1,8.3
					C97.8,82.5,101.2,79,101.2,74.2z"/>
				<path class="st0" d="M143.7,65.2v17.9h-1v-8.8h-12.1v8.8h-1V65.2h1v8.1h12.1v-8.1H143.7z"/>
				<path class="st0" d="M213.8,66.2h-7.4v16.9h-1V66.2H198v-1h15.8V66.2z"/>
				<path class="st0" d="M254.2,65.2v17.9h-0.9l-0.1-4.7c-1.4,3-4.4,5-8.2,5c-5.2,0-9.1-4-9.1-9.3c0-5.3,3.9-9.3,9.1-9.3
					c3.8,0,6.7,2,8.2,5l0.1-4.7L254.2,65.2z M253.1,74.2c0-4.8-3.4-8.3-8.1-8.3c-4.6,0-8.1,3.6-8.1,8.3c0,4.7,3.5,8.3,8.1,8.3
					C249.7,82.5,253.1,79,253.1,74.2z"/>
				<path class="st0" d="M279.7,74.2c0-5.3,4-9.3,9.2-9.3c4,0,7.1,2.2,8.3,5.6h-1.1c-1.3-2.9-4-4.6-7.3-4.6c-4.6,0-8.1,3.6-8.1,8.3
					c0,4.7,3.5,8.3,8.1,8.3c3.3,0,6-1.7,7.3-4.7h1.1c-1.3,3.5-4.5,5.7-8.4,5.7C283.7,83.5,279.7,79.5,279.7,74.2z"/>
				<path class="st0" d="M338.7,74.5h-16.7c0.2,4.6,3.5,7.9,7.9,7.9c3.2,0,5.7-1.6,7.1-4.4h1.1c-1.7,3.5-4.6,5.5-8.2,5.5
					c-5.1,0-9-4-9-9.3c0-5.3,3.9-9.3,9-9.3c5.2,0,8.8,4,8.8,9.2C338.7,74.2,338.7,74.4,338.7,74.5z M329.9,65.9
					c-4.3,0-7.6,3.2-7.9,7.6h15.7C337.4,69,334.1,65.9,329.9,65.9L329.9,65.9z"/>
				<path class="st0" d="M377.7,78.3c0,2.8-2.3,4.9-5.3,4.9h-8.3V65.2h8.2c2.9,0,4.8,1.8,4.8,4.4c0,2-1.2,3.5-2.9,4.1
					C376.3,74.3,377.7,76,377.7,78.3z M372.2,66.2h-7.1v7h7.1c2.3,0,3.8-1.4,3.8-3.5C376,67.6,374.5,66.2,372.2,66.2z M376.6,78.2
					c0-2.3-1.8-3.9-4.4-3.9h-7.1v7.9h7.2C374.8,82.1,376.6,80.5,376.6,78.2z"/>
				<path class="st0" d="M401.9,74.2c0-5.3,4-9.3,9.2-9.3c4,0,7.1,2.2,8.3,5.6h-1.1c-1.3-2.9-4-4.6-7.3-4.6c-4.6,0-8.1,3.6-8.1,8.3
					c0,4.7,3.5,8.3,8.1,8.3c3.3,0,6-1.7,7.3-4.7h1.1c-1.3,3.5-4.5,5.7-8.4,5.7C405.9,83.5,401.9,79.5,401.9,74.2z"/>
				<path class="st0" d="M449.1,74.3h-3.4v8.9h-1.1V65.2h1.1v8.1h3.4l7-8.1h1.3l-7.5,8.6l8.1,9.3h-1.4L449.1,74.3z"/>
				<path class="st0" d="M496,65.2v17.9h-1V67.2l-12.3,15.9H482V65.2h1v15.9l12.3-15.9H496z"/>
			</g>
		</g>
	</g>
</g>
</svg>
